<svg width="110" height="110" viewBox="0 0 110 110" fill="none" xmlns="http://www.w3.org/2000/svg">
<g filter="url(#filter0_d_91_927)">
<path fill-rule="evenodd" clip-rule="evenodd" d="M28.426 41.3333C38.1482 30.6667 50.1389 31 56.6204 37.6667C42.6852 41 53.4277 56.2476 64.3982 51.6667C76.1139 46.7746 75.3559 28.1461 53.1281 20.222C54.3803 20.0753 55.6537 20 56.9445 20C75.1715 20 89.9528 35.025 90 53.5776C87.7029 46.9775 84.5103 42.1878 80.2779 38.6667C83.6632 52.8043 79.3057 62.3333 68.9353 64.3333C74.1205 51 53.7402 51.6667 53.2764 65.3695C52.8551 77.8178 68.5873 84.5388 85.597 70.6017C80.3242 82.0623 68.8964 90 55.6482 90C49.3009 90 43.3714 88.1779 38.3365 85.0193C45.296 86.3695 51.8195 86.3238 56.6204 84C42.6852 81.3333 37.176 70.3333 39.4445 61.6667C49.1667 72.6667 58.2408 55.3333 47.2223 47.6667C36.7212 41.4479 21.8458 50.965 25.6064 73.0979C22.066 67.7362 20 61.2805 20 54.3333C20 42.2043 26.2976 31.5733 35.7442 25.6472C31.557 30.781 29.1402 36.0221 28.426 41.3333Z" fill="#985AEA"/>
</g>
<defs>
<filter id="filter0_d_91_927" x="0" y="0" width="110" height="110" filterUnits="userSpaceOnUse" color-interpolation-filters="sRGB">
<feFlood flood-opacity="0" result="BackgroundImageFix"/>
<feColorMatrix in="SourceAlpha" type="matrix" values="0 0 0 0 0 0 0 0 0 0 0 0 0 0 0 0 0 0 127 0" result="hardAlpha"/>
<feOffset/>
<feGaussianBlur stdDeviation="10"/>
<feComposite in2="hardAlpha" operator="out"/>
<feColorMatrix type="matrix" values="0 0 0 0 0 0 0 0 0 0 0 0 0 0 0 0 0 0 0.5 0"/>
<feBlend mode="normal" in2="BackgroundImageFix" result="effect1_dropShadow_91_927"/>
<feBlend mode="normal" in="SourceGraphic" in2="effect1_dropShadow_91_927" result="shape"/>
</filter>
</defs>
</svg>
