<svg width="110" height="122" viewBox="0 0 110 122" fill="none" xmlns="http://www.w3.org/2000/svg">
<g filter="url(#filter0_d_91_1008)">
<path d="M55.3957 95.3543C66.1334 85.4911 100.336 78.7842 78.8599 61.0306C88.0069 74.0499 73.2917 88.6473 56.9863 88.6473C39.4875 89.4364 34.7151 68.9211 51.8162 72.0773C40.2831 81.9404 55.7932 91.409 68.5196 81.9404C75.6782 76.0225 74.8828 64.5943 59.7702 58.6634C23.5795 44.4605 56.5883 32.6248 53.8047 20C76.4736 39.7262 45.453 39.7262 55.3957 52.7456C54.2516 45.4965 56.1679 42.2163 64.1451 37.7536C61.6914 48.4131 62.9393 53.2378 69.7129 59.847C64.0485 51.7913 64.5426 46.0386 70.5081 41.3043C72.0989 55.9018 89.6087 58.2689 89.9954 72.0773C90.371 85.4911 67.7242 89.8309 55.3957 101.667C38.2943 86.2802 19.9692 83.9055 20.0001 73.2609C20.0239 65.0666 27.5564 59.058 39.0898 42.4879C40.2829 51.9565 48.2369 55.1127 54.9978 58.2689C38.2944 59.4525 33.9197 73.2609 40.2831 82.7295C33.9198 80.7568 23.5796 74.4444 31.9313 59.847C12.0463 80.3623 44.6577 83.913 55.3957 95.3543Z" fill="#F04D43"/>
<path d="M58.9742 80.7566C62.9512 72.8661 56.1903 65.3701 45.0547 69.3154C45.8501 61.8194 57.5194 60.4602 62.9512 63.792C69.14 67.5882 71.7006 77.2059 58.9742 80.7566Z" fill="#F04D43"/>
</g>
<defs>
<filter id="filter0_d_91_1008" x="0" y="0" width="110" height="121.667" filterUnits="userSpaceOnUse" color-interpolation-filters="sRGB">
<feFlood flood-opacity="0" result="BackgroundImageFix"/>
<feColorMatrix in="SourceAlpha" type="matrix" values="0 0 0 0 0 0 0 0 0 0 0 0 0 0 0 0 0 0 127 0" result="hardAlpha"/>
<feOffset/>
<feGaussianBlur stdDeviation="10"/>
<feComposite in2="hardAlpha" operator="out"/>
<feColorMatrix type="matrix" values="0 0 0 0 0 0 0 0 0 0 0 0 0 0 0 0 0 0 0.5 0"/>
<feBlend mode="normal" in2="BackgroundImageFix" result="effect1_dropShadow_91_1008"/>
<feBlend mode="normal" in="SourceGraphic" in2="effect1_dropShadow_91_1008" result="shape"/>
</filter>
</defs>
</svg>
