<svg width="105" height="116" viewBox="0 0 105 116" fill="none" xmlns="http://www.w3.org/2000/svg">
<g filter="url(#filter0_d_91_956)">
<path fill-rule="evenodd" clip-rule="evenodd" d="M52.4164 20L52.3046 20.2219C48.7019 27.3795 46.4264 31.9003 41.9799 38.4613C43.5147 38.4613 44.4356 38.4613 45.9703 37.8247C49.5664 44.1856 50.733 47.6125 52.4164 54.3762C54.0997 47.6125 55.2663 44.1856 58.8624 37.8247C60.3972 38.4613 61.318 38.4613 62.8528 38.4613C58.4064 31.9003 56.1308 27.3795 52.5281 20.2219L52.4164 20ZM52.4164 32.0954L49.5701 35.9149C51.0823 39.0774 51.6122 41.3001 52.4164 45.4639C53.2206 41.3001 53.7505 39.0774 55.2627 35.9149L52.4164 32.0954ZM20.1351 39.1722L20 38.9639L20.2468 38.9775C28.207 39.416 33.2348 39.693 41.1036 39.0979C40.3362 40.4357 39.8757 41.2383 38.5606 42.2577C42.2359 48.5726 44.6013 51.3029 49.5796 56.152C42.918 54.2374 39.3859 53.5407 32.1146 53.4947C31.8949 55.1507 31.4345 55.9534 30.6671 57.2911C27.2448 50.135 24.4926 45.8912 20.1351 39.1722ZM32.2712 49.4022L30.4077 45.0115L35.1175 44.4404C37.0825 47.3396 38.7302 48.9129 41.9109 51.6957C37.926 50.3149 35.7484 49.6653 32.2712 49.4022ZM46.8032 47.9323L46.0353 51.6864L51.9529 57.4489L44.0353 55.1721L41.189 57.7185L44.0353 60.2649L51.9511 57.9887L46.0348 63.7498L46.8028 67.5039L50.417 66.2962L52.4161 58.2589L54.4153 66.296L58.0295 67.5037L58.7974 63.7497L52.8808 57.9881L60.7973 60.2646L63.6436 57.7182L60.7973 55.1718L52.8819 57.448L58.7981 51.687L58.0301 47.9329L54.4159 49.1406L52.4167 57.178L50.4174 49.14L46.8032 47.9323ZM85 38.9639L84.7532 38.9775C76.793 39.416 71.7652 39.693 63.8965 39.0979C64.6638 40.4357 65.1243 41.2383 66.4394 42.2577C62.7641 48.5726 60.3987 51.3029 55.4204 56.152C62.082 54.2374 65.6141 53.5407 72.8855 53.4947C73.1051 55.1507 73.5655 55.9534 74.3329 57.2911C77.7552 50.135 80.5075 45.8912 84.8649 39.1722L85 38.9639ZM74.5925 45.0116L69.8827 44.4405C67.9176 47.3397 66.2699 48.913 63.0893 51.6958C67.0742 50.315 69.2517 49.6654 72.729 49.4023L74.5925 45.0116ZM84.8649 76.3145L85 76.5229L84.7532 76.5093C76.793 76.0707 71.7652 75.7937 63.8964 76.3888C64.6638 75.0511 65.1242 74.2484 66.4394 73.229C62.7641 66.9141 60.3987 64.1838 55.4204 59.3348C62.082 61.2494 65.6141 61.946 72.8854 61.992C73.105 60.336 73.5655 59.5334 74.3329 58.1956C77.7552 65.3517 80.5074 69.5956 84.8649 76.3145ZM72.7288 66.0846L74.5923 70.4753L69.8825 71.0464C67.9175 68.1471 66.2698 66.5739 63.0891 63.791C67.074 65.1719 69.2516 65.8214 72.7288 66.0846ZM20 76.5229L20.2468 76.5093H20.2468C28.207 76.0707 33.2348 75.7937 41.1036 76.3888C40.3362 75.0511 39.8757 74.2484 38.5606 73.229C42.2359 66.9141 44.6013 64.1838 49.5796 59.3348C42.918 61.2494 39.3859 61.946 32.1146 61.992C31.8949 60.336 31.4345 59.5334 30.6671 58.1956C27.2448 65.3517 24.4926 69.5956 20.1351 76.3145L20 76.5229ZM30.4077 70.4752L35.1174 71.0463C37.0825 68.147 38.7302 66.5738 41.9108 63.7909C37.9259 65.1718 35.7484 65.8213 32.2711 66.0845L30.4077 70.4752ZM52.7617 95.3016L52.65 95.5235L52.5382 95.3016C48.9355 88.144 46.66 83.6232 42.2135 77.0622C43.7483 77.0622 44.6692 77.0622 46.2039 77.6988C49.8 71.3379 50.9666 67.911 52.65 61.1473C54.3333 67.911 55.4999 71.3379 59.096 77.6988C60.6308 77.0622 61.5516 77.0622 63.0864 77.0622C58.64 83.6232 56.3644 88.144 52.7617 95.3016ZM55.2628 79.5218L52.4165 83.3413L49.5702 79.5218C51.0823 76.3593 51.6122 74.1366 52.4165 69.9728C53.2207 74.1366 53.7506 76.3593 55.2628 79.5218Z" fill="#5BD6DF"/>
</g>
<defs>
<filter id="filter0_d_91_956" x="0" y="0" width="105" height="115.523" filterUnits="userSpaceOnUse" color-interpolation-filters="sRGB">
<feFlood flood-opacity="0" result="BackgroundImageFix"/>
<feColorMatrix in="SourceAlpha" type="matrix" values="0 0 0 0 0 0 0 0 0 0 0 0 0 0 0 0 0 0 127 0" result="hardAlpha"/>
<feOffset/>
<feGaussianBlur stdDeviation="10"/>
<feComposite in2="hardAlpha" operator="out"/>
<feColorMatrix type="matrix" values="0 0 0 0 0 0 0 0 0 0 0 0 0 0 0 0 0 0 0.5 0"/>
<feBlend mode="normal" in2="BackgroundImageFix" result="effect1_dropShadow_91_956"/>
<feBlend mode="normal" in="SourceGraphic" in2="effect1_dropShadow_91_956" result="shape"/>
</filter>
</defs>
</svg>
