<svg width="72" height="71" viewBox="0 0 72 71" fill="none" xmlns="http://www.w3.org/2000/svg">
<path d="M25.5082 1C7.79259 5.59375 8.77675 28.8906 33.7098 33.1562C21.2433 23.3125 19.603 9.53125 25.5082 1Z" stroke="#FDFDFD"/>
<path d="M18.8525 42.9557C12.6361 46.0654 -2.74136 43.2831 1.83913 24.625C3.14788 25.2797 3.53493 26.1629 4.12942 26.9163C14.272 42.3011 23.8956 31.977 30.9581 40.734C38.0206 49.4911 25.0689 55.0671 24.0874 46.8838C30.5655 47.265 30.631 42.6284 28.6679 41.1612C26.7048 39.694 22.7787 40.9917 18.8525 42.9557Z" stroke="#FDFDFD"/>
<path d="M27.0478 33.2558L27.2647 32.8052L27.0478 33.2558ZM36.0009 40.375L35.5393 40.5672L36.0049 41.6853L36.4636 40.5644L36.0009 40.375ZM9.58646 10.8438L10.0808 10.7688L9.90652 9.61932L9.19203 10.5365L9.58646 10.8438ZM21.4731 35.4531L21.4839 34.9532L21.4731 35.4531ZM23.1239 51.5312L23.2287 51.0424L21.4163 50.6539L22.7874 51.9011L23.1239 51.5312ZM36.0009 69.25L35.5536 69.4734L36.0047 70.3767L36.4497 69.4703L36.0009 69.25ZM48.658 51.5312L48.9976 51.8982L50.3445 50.6517L48.5515 51.0427L48.658 51.5312ZM50.2806 35.4531L50.2696 34.9532L50.2806 35.4531ZM61.9641 10.8438L62.3611 10.5398L61.6435 9.6027L61.4696 10.77L61.9641 10.8438ZM44.8011 33.2558L44.5812 32.8067L44.5775 32.8085L44.8011 33.2558ZM44.8008 33.2559L45.0208 33.7049L45.0245 33.7031L44.8008 33.2559ZM36.0007 51.5312L36.3918 51.2197L36.0041 50.7329L35.6123 51.2165L36.0007 51.5312ZM32.0386 55.1406L31.774 54.7164L32.173 55.6222L32.0386 55.1406ZM39.8953 55.1406L39.7587 55.6216L40.1632 54.7184L39.8953 55.1406ZM36.408 53.4405L36.6844 53.0239H36.6844L36.408 53.4405ZM36.0007 53.1719L36.2742 52.7533L36.0031 52.5762L35.7306 52.7511L36.0007 53.1719ZM35.5865 53.4405L35.8596 53.8594H35.8596L35.5865 53.4405ZM33.7981 57.9855L34.151 58.3397L34.1512 58.3395L33.7981 57.9855ZM33.6895 58.0938L33.3366 57.7395L32.9582 58.1165L33.3593 58.4692L33.6895 58.0938ZM36.0007 56.4531L36.1622 55.9799L36.0021 55.9253L35.8417 55.9791L36.0007 56.4531ZM38.1659 57.9855L37.8097 58.3365L37.8099 58.3367L38.1659 57.9855ZM38.2726 58.0938L38.606 58.4664L38.9973 58.1163L38.6286 57.7426L38.2726 58.0938ZM36.0007 61.375L35.5231 61.5229L36.0049 63.0782L36.4791 61.5206L36.0007 61.375ZM26.8309 33.7063C30.8805 35.6558 34.1633 37.2624 35.5393 40.5672L36.4625 40.1828C34.9127 36.4608 31.2185 34.7086 27.2647 32.8052L26.8309 33.7063ZM9.09212 10.9187C10.2512 18.563 12.9483 23.4436 16.2549 26.8308C19.549 30.2052 23.4195 32.064 26.8309 33.7063L27.2647 32.8052C23.8398 31.1565 20.1251 29.3638 16.9704 26.1322C13.8282 22.9134 11.2127 18.2334 10.0808 10.7688L9.09212 10.9187ZM21.4839 34.9532C14.0566 34.7928 9.29816 31.2772 7.32251 26.6437C5.33906 21.992 6.11584 16.1124 9.9809 11.151L9.19203 10.5365C5.13286 15.747 4.25879 22.008 6.40264 27.036C8.55429 32.0822 13.7013 35.7853 21.4623 35.953L21.4839 34.9532ZM23.0191 52.0201C27.3041 52.9386 30.4565 52.4203 32.4855 50.9995C34.5317 49.5666 35.3398 47.2826 35.0528 44.914C34.4811 40.1952 29.61 35.1288 21.4839 34.9532L21.4623 35.953C29.1848 36.1198 33.5588 40.8972 34.0601 45.0342C34.3096 47.0935 33.6113 48.9904 31.9119 50.1803C30.1954 51.3823 27.3633 51.9286 23.2287 51.0424L23.0191 52.0201ZM36.4482 69.0266C32.2139 60.5491 29.348 56.517 23.4603 51.1614L22.7874 51.9011C28.5636 57.1553 31.3608 61.0792 35.5536 69.4734L36.4482 69.0266ZM48.3184 51.1643C42.5308 56.5204 39.7138 60.5526 35.5521 69.0297L36.4497 69.4703C40.571 61.0757 43.3207 57.152 48.9976 51.8982L48.3184 51.1643ZM50.2696 34.9532C42.2718 35.129 37.4856 40.2018 36.9243 44.915C36.6426 47.2795 37.4347 49.5628 39.4481 50.9971C41.4461 52.4206 44.5497 52.9389 48.7645 52.0198L48.5515 51.0427C44.4905 51.9283 41.7118 51.382 40.0283 50.1827C38.3601 48.9942 37.6715 47.0966 37.9172 45.0332C38.4106 40.8906 42.7115 36.1196 50.2915 35.953L50.2696 34.9532ZM61.5671 11.1477C65.3663 16.1092 66.1312 21.9917 64.1803 26.6466C62.2378 31.2816 57.5624 34.793 50.2696 34.9532L50.2915 35.953C57.9276 35.7852 62.9884 32.0778 65.1026 27.0331C67.2085 22.0083 66.3508 15.7501 62.3611 10.5398L61.5671 11.1477ZM45.021 33.7048C48.3744 32.0624 52.18 30.203 55.4187 26.8277C58.6693 23.44 61.3196 18.56 62.4586 10.9175L61.4696 10.77C60.3568 18.2364 57.7853 22.9169 54.6972 26.1353C51.5973 29.366 47.9474 31.1581 44.5812 32.8067L45.021 33.7048ZM45.0245 33.7031L45.0247 33.703L44.5775 32.8085L44.5772 32.8087L45.0245 33.7031ZM36.4636 40.5644C37.8162 37.2595 41.0414 35.6539 45.0208 33.7049L44.5809 32.8069C40.6939 34.7106 37.0613 36.4638 35.5381 40.1856L36.4636 40.5644ZM35.6123 51.2165C33.9573 53.2588 33.1662 53.8482 31.774 54.7164L32.3032 55.5649C33.7893 54.6381 34.6643 53.9748 36.3892 51.846L35.6123 51.2165ZM40.1632 54.7184C38.7957 53.8508 38.0184 53.2619 36.3918 51.2197L35.6096 51.8428C37.3052 53.9716 38.1658 54.6354 39.6275 55.5628L40.1632 54.7184ZM36.1317 53.8572C37.1485 54.5317 38.0653 55.1406 39.7587 55.6216L40.032 54.6597C38.4924 54.2223 37.6808 53.6848 36.6844 53.0239L36.1317 53.8572ZM35.7273 53.5905C35.8652 53.6806 35.999 53.7693 36.1317 53.8572L36.6844 53.0239C36.5519 52.936 36.4154 52.8455 36.2742 52.7533L35.7273 53.5905ZM35.8596 53.8594C35.9946 53.7713 36.1306 53.6827 36.2709 53.5926L35.7306 52.7511C35.5869 52.8434 35.4481 52.9339 35.3134 53.0217L35.8596 53.8594ZM32.173 55.6222C33.8937 55.1418 34.825 54.5338 35.8596 53.8594L35.3134 53.0217C34.2997 53.6826 33.4726 54.2211 31.9041 54.659L32.173 55.6222ZM33.4452 57.6313L33.3366 57.7395L34.0424 58.448L34.151 58.3397L33.4452 57.6313ZM35.8417 55.9791C34.7156 56.3569 34.0622 57.0159 33.445 57.6315L34.1512 58.3395C34.7701 57.7223 35.2781 57.223 36.1598 56.9272L35.8417 55.9791ZM38.522 57.6346C37.9158 57.0194 37.2722 56.3588 36.1622 55.9799L35.8392 56.9263C36.7028 57.2211 37.201 57.7188 37.8097 58.3365L38.522 57.6346ZM38.6286 57.7426L38.5218 57.6344L37.8099 58.3367L37.9167 58.4449L38.6286 57.7426ZM36.4791 61.5206C36.6795 60.8624 36.8973 60.3886 37.2096 59.9434C37.5267 59.4914 37.9553 59.0486 38.606 58.4664L37.9393 57.7211C37.27 58.3198 36.7741 58.823 36.391 59.3691C36.0031 59.922 35.745 60.4983 35.5224 61.2294L36.4791 61.5206ZM33.3593 58.4692C34.0216 59.0516 34.4577 59.4946 34.7804 59.9467C35.098 60.3918 35.3194 60.8653 35.5231 61.5229L36.4784 61.2271C36.2518 60.4955 35.989 59.9188 35.5943 59.3658C35.2046 58.8198 34.7003 58.3168 34.0197 57.7183L33.3593 58.4692Z" fill="#FDFDFD"/>
<path d="M46.8815 1C64.0256 5.59375 63.0732 28.8906 38.9444 33.1562C51.0088 23.3125 52.5962 9.53125 46.8815 1Z" stroke="#FDFDFD"/>
<path d="M53.1475 42.9557C59.3639 46.0654 74.7414 43.2831 70.1609 24.625C68.8521 25.2797 68.4651 26.1629 67.8706 26.9163C57.728 42.3011 48.1044 31.977 41.0419 40.734C33.9794 49.4911 46.9311 55.0671 47.9126 46.8838C41.4345 47.265 41.369 42.6284 43.3321 41.1612C45.2952 39.694 49.2213 40.9917 53.1475 42.9557Z" stroke="#FDFDFD"/>
</svg>
