<svg width="110" height="112" viewBox="0 0 110 112" fill="none" xmlns="http://www.w3.org/2000/svg">
<g filter="url(#filter0_d_91_1408)">
<path d="M90 55.972C89.449 57.4893 84.6146 64.1064 81.8085 65.5156C73.9568 46.5207 67.5384 38.3564 55 25.1387C45.2429 34.9004 40.8511 40.9224 40.1064 46.4283C45.6817 41.4235 48.9837 38.9225 55 34.6823C61.4799 40.9444 64.6915 45.0096 69.8936 53.0355C67.031 56.8872 60.3375 61.6655 56.4894 64.0474C55.3064 63.1209 54.655 62.2913 53.5106 60.3767C56.9189 57.5315 58.7106 55.7912 61.7021 52.3013C60.3442 48.4958 58.7855 46.6038 55 43.4918C47.8942 46.8411 43.5684 51.0971 37.1277 57.4402C33.211 51.4358 31.8704 48.067 31.1702 42.0236C39.3607 32.3839 44.7233 27.7053 55 19.9998C65.5873 27.7033 83.8371 43.865 90 55.972Z" fill="#E3C348"/>
<path d="M20 55.9724C20.551 54.455 25.3854 47.8379 28.1915 46.4287C36.0432 65.4236 42.4615 73.5879 55 86.8057C64.7571 77.0439 69.1489 71.022 69.8936 65.516C64.3183 70.5209 61.0163 73.0218 55 77.262C48.5201 71 45.3085 66.9348 40.1064 58.9089C42.969 55.0571 49.6625 50.2789 53.5106 47.897C54.6936 48.8235 55.345 49.6531 56.4894 51.5676C53.0811 54.4128 51.2894 56.1532 48.2979 59.643C49.6558 63.4485 51.2145 65.3405 55 68.4525C62.1058 65.1032 66.4316 60.8473 72.8723 54.5041C76.789 60.5085 78.1296 63.8773 78.8298 69.9208C70.6392 79.5604 65.2767 84.239 55 91.9446C44.4126 84.241 26.1628 68.0793 20 55.9724Z" fill="#E3C348"/>
</g>
<defs>
<filter id="filter0_d_91_1408" x="0" y="0" width="110" height="111.944" filterUnits="userSpaceOnUse" color-interpolation-filters="sRGB">
<feFlood flood-opacity="0" result="BackgroundImageFix"/>
<feColorMatrix in="SourceAlpha" type="matrix" values="0 0 0 0 0 0 0 0 0 0 0 0 0 0 0 0 0 0 127 0" result="hardAlpha"/>
<feOffset/>
<feGaussianBlur stdDeviation="10"/>
<feComposite in2="hardAlpha" operator="out"/>
<feColorMatrix type="matrix" values="0 0 0 0 0 0 0 0 0 0 0 0 0 0 0 0 0 0 0.5 0"/>
<feBlend mode="normal" in2="BackgroundImageFix" result="effect1_dropShadow_91_1408"/>
<feBlend mode="normal" in="SourceGraphic" in2="effect1_dropShadow_91_1408" result="shape"/>
</filter>
</defs>
</svg>
