<svg width="110" height="110" viewBox="0 0 110 110" fill="none" xmlns="http://www.w3.org/2000/svg">
<g filter="url(#filter0_d_91_1299)">
<path d="M54.6532 84.2822C59.8512 84.2822 63.6632 81.0681 65.3959 77.4968C57.4255 84.2822 47.2262 81.7823 47.3758 73.5685C47.3758 67.8545 55.3462 64.9975 57.4255 71.4257C57.942 72.6678 59.1582 74.6398 62.277 74.6398C66.0889 74.6398 67.0779 71.0604 66.782 68.9259C66.0889 63.9262 61.5839 58.5693 54.3066 58.5693C47.3758 58.5693 42.1777 64.2833 42.1777 71.4257C42.1777 78.5682 47.7224 84.2822 54.6532 84.2822Z" fill="#2993F4"/>
<path fill-rule="evenodd" clip-rule="evenodd" d="M54.653 89.996C75.0989 90.309 89.9997 74.6397 89.9997 54.998C89.9997 35.6691 74.1743 20 54.6527 20C41.6564 20 30.3953 27.4996 25.1971 36.4276C23.3159 39.2846 23.8111 42.4394 25.5437 43.9272C27.623 45.7128 30.8109 45.7128 33.1674 42.8558C39.0586 35.7134 45.8763 32.1422 54.9993 32.1422C70.1189 32.1422 82.3759 44.4536 82.3759 59.6406C82.3759 72.4932 74.7523 80.3537 69.5542 82.4964C73.3662 79.9966 79.6039 74.2456 79.6039 63.2118C79.6039 49.9972 68.7434 39.2846 55.3462 39.2846C49.9553 39.2846 47.1701 40.2874 45.9896 40.7131C43.9103 41.4629 42.2436 43.9272 42.691 46.7842C42.9695 48.5633 44.7484 51.8497 49.8016 50.7125C51.1378 50.4118 53.5694 49.9983 54.9996 49.9983C65.1432 49.9983 73.0196 57.9927 73.0196 67.8544C73.0196 77.7161 64.7966 85.3534 54.653 85.3534C49.1083 85.3534 41.138 84.6392 32.821 78.9252C36.9795 85.3534 43.9103 89.2818 54.653 89.996Z" fill="#2993F4"/>
<ellipse cx="25.1981" cy="55.3549" rx="5.19809" ry="5.35684" fill="#2993F4"/>
<ellipse cx="31.7825" cy="70.7113" rx="4.15847" ry="4.28547" fill="#2993F4"/>
</g>
<defs>
<filter id="filter0_d_91_1299" x="0" y="0" width="110" height="110.001" filterUnits="userSpaceOnUse" color-interpolation-filters="sRGB">
<feFlood flood-opacity="0" result="BackgroundImageFix"/>
<feColorMatrix in="SourceAlpha" type="matrix" values="0 0 0 0 0 0 0 0 0 0 0 0 0 0 0 0 0 0 127 0" result="hardAlpha"/>
<feOffset/>
<feGaussianBlur stdDeviation="10"/>
<feComposite in2="hardAlpha" operator="out"/>
<feColorMatrix type="matrix" values="0 0 0 0 0 0 0 0 0 0 0 0 0 0 0 0 0 0 0.5 0"/>
<feBlend mode="normal" in2="BackgroundImageFix" result="effect1_dropShadow_91_1299"/>
<feBlend mode="normal" in="SourceGraphic" in2="effect1_dropShadow_91_1299" result="shape"/>
</filter>
</defs>
</svg>
