<svg width="170" height="192" viewBox="0 0 170 192" fill="none" xmlns="http://www.w3.org/2000/svg">
<g filter="url(#filter0_d_188_1138)">
<path d="M85.7349 159.944C105.676 141.626 169.195 129.171 129.311 96.1997C146.299 120.378 118.97 147.488 88.6888 147.488C56.191 148.953 47.328 110.853 79.0872 116.715C57.6687 135.032 86.473 152.617 110.108 135.032C123.402 124.042 121.925 102.818 93.8589 91.8036C26.6476 65.4267 87.9497 43.4461 82.7801 20C124.88 56.6345 67.2698 56.6345 85.7349 80.8132C83.6101 67.3507 87.1689 61.2589 101.984 52.971C97.4269 72.7671 99.7445 81.7273 112.324 94.0016C101.804 79.0409 102.722 68.3575 113.801 59.5652C116.755 86.6747 149.273 91.0709 149.991 116.715C150.689 141.626 108.631 149.686 85.7349 171.667C53.9751 143.092 19.9427 138.682 20.0002 118.913C20.0444 103.695 34.0333 92.5362 55.4524 61.7633C57.6682 79.3478 72.4399 85.2093 84.9959 91.0709C53.9753 93.2689 45.8508 118.913 57.6687 136.498C45.851 132.834 26.6478 121.111 42.1581 94.0016C5.22878 132.101 65.7929 138.696 85.7349 159.944Z" fill="white"/>
<path d="M92.3818 132.834C99.7676 118.18 87.2117 104.259 66.5312 111.586C68.0084 97.6649 89.6801 95.1407 99.7676 101.328C111.261 108.378 116.017 126.24 92.3818 132.834Z" fill="white"/>
</g>
<defs>
<filter id="filter0_d_188_1138" x="0" y="0" width="170" height="191.667" filterUnits="userSpaceOnUse" color-interpolation-filters="sRGB">
<feFlood flood-opacity="0" result="BackgroundImageFix"/>
<feColorMatrix in="SourceAlpha" type="matrix" values="0 0 0 0 0 0 0 0 0 0 0 0 0 0 0 0 0 0 127 0" result="hardAlpha"/>
<feOffset/>
<feGaussianBlur stdDeviation="10"/>
<feComposite in2="hardAlpha" operator="out"/>
<feColorMatrix type="matrix" values="0 0 0 0 0 0 0 0 0 0 0 0 0 0 0 0 0 0 0.5 0"/>
<feBlend mode="normal" in2="BackgroundImageFix" result="effect1_dropShadow_188_1138"/>
<feBlend mode="normal" in="SourceGraphic" in2="effect1_dropShadow_188_1138" result="shape"/>
</filter>
</defs>
</svg>
