<svg width="190" height="190" viewBox="0 0 190 190" fill="none" xmlns="http://www.w3.org/2000/svg">
<g filter="url(#filter0_d_198_1240)">
<path fill-rule="evenodd" clip-rule="evenodd" d="M38.0556 65.7143C58.889 42.8571 84.5834 43.5714 98.4724 57.8571C68.6112 65 91.6307 97.6734 115.139 87.8571C140.244 77.3742 138.62 37.456 90.9887 20.4756C93.672 20.1615 96.4009 20 99.1668 20C138.225 20 169.899 52.1964 170 91.952C165.078 77.8089 158.236 67.5454 149.167 60C156.421 90.295 147.084 110.714 124.861 115C135.972 86.4286 92.3004 87.8571 91.3066 117.22C90.4037 143.895 124.116 158.297 160.565 128.432C149.266 152.991 124.778 170 96.389 170C82.7876 170 70.0816 166.096 59.2925 159.327C74.2057 162.22 88.1847 162.122 98.4724 157.143C68.6112 151.429 56.8057 127.857 61.6668 109.286C82.5001 132.857 101.945 95.7143 78.3334 79.2857C55.8312 65.9597 23.9553 86.3536 32.0138 133.781C24.4272 122.292 20 108.458 20 93.5714C20 67.5806 33.4949 44.7999 53.7376 32.101C44.7649 43.102 39.5861 54.3331 38.0556 65.7143Z" fill="white"/>
</g>
<defs>
<filter id="filter0_d_198_1240" x="0" y="0" width="190" height="190" filterUnits="userSpaceOnUse" color-interpolation-filters="sRGB">
<feFlood flood-opacity="0" result="BackgroundImageFix"/>
<feColorMatrix in="SourceAlpha" type="matrix" values="0 0 0 0 0 0 0 0 0 0 0 0 0 0 0 0 0 0 127 0" result="hardAlpha"/>
<feOffset/>
<feGaussianBlur stdDeviation="10"/>
<feComposite in2="hardAlpha" operator="out"/>
<feColorMatrix type="matrix" values="0 0 0 0 0 0 0 0 0 0 0 0 0 0 0 0 0 0 0.5 0"/>
<feBlend mode="normal" in2="BackgroundImageFix" result="effect1_dropShadow_198_1240"/>
<feBlend mode="normal" in="SourceGraphic" in2="effect1_dropShadow_198_1240" result="shape"/>
</filter>
</defs>
</svg>
