<svg width="190" height="190" viewBox="0 0 190 190" fill="none" xmlns="http://www.w3.org/2000/svg">
<g filter="url(#filter0_d_210_1447)">
<path d="M94.2565 157.747C105.395 157.747 113.564 150.86 117.277 143.207C100.197 157.747 78.3415 152.39 78.6622 134.789C78.6622 122.545 95.7416 116.423 100.197 130.198C101.304 132.859 103.91 137.085 110.593 137.085C118.762 137.085 120.881 129.415 120.247 124.841C118.762 114.127 109.108 102.648 93.5139 102.648C78.6622 102.648 67.5234 114.893 67.5234 130.198C67.5234 145.503 79.4048 157.747 94.2565 157.747Z" fill="white"/>
<path fill-rule="evenodd" clip-rule="evenodd" d="M94.2568 169.991C138.069 170.662 170 137.085 170 94.9957C170 53.5767 136.088 20 94.2561 20C66.4069 20 42.2758 36.0705 31.1369 55.2021C27.1058 61.3242 28.167 68.0845 31.8795 71.2726C36.3353 75.0989 43.1666 75.0989 48.2162 68.9768C60.8401 53.6715 75.4494 46.0189 94.9987 46.0189C127.398 46.0189 153.663 72.4006 153.663 104.944C153.663 132.485 137.327 149.329 126.188 153.921C134.356 148.564 147.723 136.241 147.723 112.597C147.723 84.2797 124.45 61.3242 95.7421 61.3242C84.1902 61.3242 78.222 63.473 75.6923 64.3852C71.2367 65.992 67.6652 71.2726 68.6238 77.3947C69.2207 81.2071 73.0326 88.2493 83.8608 85.8126C86.724 85.1682 91.9348 84.282 94.9995 84.282C116.736 84.282 133.614 101.413 133.614 122.545C133.614 143.677 115.993 160.043 94.2568 160.043C82.3752 160.043 65.296 158.512 47.474 146.268C56.385 160.043 71.2367 168.461 94.2568 169.991Z" fill="white"/>
<ellipse cx="31.1388" cy="95.7602" rx="11.1388" ry="11.4789" fill="white"/>
<ellipse cx="45.2479" cy="128.667" rx="8.91101" ry="9.18315" fill="white"/>
</g>
<defs>
<filter id="filter0_d_210_1447" x="0" y="0" width="190" height="190.001" filterUnits="userSpaceOnUse" color-interpolation-filters="sRGB">
<feFlood flood-opacity="0" result="BackgroundImageFix"/>
<feColorMatrix in="SourceAlpha" type="matrix" values="0 0 0 0 0 0 0 0 0 0 0 0 0 0 0 0 0 0 127 0" result="hardAlpha"/>
<feOffset/>
<feGaussianBlur stdDeviation="10"/>
<feComposite in2="hardAlpha" operator="out"/>
<feColorMatrix type="matrix" values="0 0 0 0 0 0 0 0 0 0 0 0 0 0 0 0 0 0 0.5 0"/>
<feBlend mode="normal" in2="BackgroundImageFix" result="effect1_dropShadow_210_1447"/>
<feBlend mode="normal" in="SourceGraphic" in2="effect1_dropShadow_210_1447" result="shape"/>
</filter>
</defs>
</svg>
