<svg width="190" height="215" viewBox="0 0 190 215" fill="none" xmlns="http://www.w3.org/2000/svg">
<g filter="url(#filter0_d_200_1182)">
<path fill-rule="evenodd" clip-rule="evenodd" d="M94.8071 20L94.5493 20.5121L94.5493 20.5122C86.2353 37.0296 80.984 47.4622 70.723 62.603C74.2648 62.603 76.3899 62.603 79.9316 61.1339C88.2303 75.8129 90.9225 83.7212 94.8071 99.3297C98.6917 83.7212 101.384 75.8129 109.683 61.1339C113.224 62.603 115.349 62.603 118.891 62.603C108.63 47.4622 103.379 37.0295 95.0649 20.5121L94.8071 20ZM94.8072 47.9124L88.2388 56.7268C91.7285 64.0247 92.9512 69.1541 94.8072 78.7628C96.6631 69.1541 97.8859 64.0247 101.376 56.7268L94.8072 47.9124ZM20.3118 64.2435L20 63.7628L20.5696 63.7941C38.9392 64.8062 50.5419 65.4454 68.7005 64.0721C66.9296 67.1592 65.8671 69.0115 62.8321 71.364C71.3136 85.9368 76.7723 92.2374 88.2606 103.428C72.8877 99.0093 64.7368 97.4017 47.9567 97.2955C47.4499 101.117 46.3873 102.969 44.6165 106.056C36.7188 89.5423 30.3675 79.7489 20.3118 64.2435L20.3118 64.2435ZM48.3181 87.8512L44.0177 77.7188L54.8865 76.4009C59.4212 83.0915 63.2235 86.722 70.5635 93.144C61.3676 89.9574 56.3425 88.4584 48.3181 87.8512ZM81.854 84.4593L80.0818 93.1226L93.7388 106.422L75.466 101.167L68.8976 107.043L75.466 112.92L93.7312 107.667L80.0799 120.961L81.8521 129.624L90.1926 126.837L94.8064 108.288L99.4201 126.837L107.761 129.624L109.533 120.961L95.8796 107.665L114.148 112.918L120.716 107.042L114.148 101.166L95.8807 106.419L109.534 93.1237L107.761 84.4604L99.4209 87.2474L94.8078 105.794L90.1945 87.2463L81.854 84.4593ZM170 63.7628L169.43 63.7942C151.061 64.8062 139.458 65.4454 121.3 64.0721C123.07 67.1592 124.133 69.0115 127.168 71.364C118.686 85.9368 113.228 92.2374 101.739 103.428C117.112 99.0093 125.263 97.4017 142.043 97.2955C142.55 101.117 143.613 102.969 145.384 106.056C153.281 89.5424 159.633 79.749 169.688 64.2438L169.688 64.2435L170 63.7628ZM145.983 77.719L135.114 76.4011C130.579 83.0917 126.777 86.7222 119.437 93.1443C128.633 89.9576 133.658 88.4586 141.682 87.8514L145.983 77.719ZM169.688 149.957L170 150.438L169.43 150.406C151.061 149.394 139.458 148.755 121.3 150.128C123.07 147.041 124.133 145.189 127.168 142.837C118.686 128.264 113.228 121.963 101.739 110.773C117.112 115.191 125.263 116.799 142.043 116.905C142.55 113.083 143.613 111.231 145.384 108.144C153.281 124.658 159.633 134.452 169.688 149.957L169.688 149.957ZM141.682 126.349L145.982 136.482L135.114 137.8C130.579 131.109 126.776 127.479 119.436 121.057C128.632 124.243 133.658 125.742 141.682 126.349ZM20 150.438L20.5696 150.406H20.5696C38.9393 149.394 50.5419 148.755 68.7005 150.128C66.9296 147.041 65.8671 145.189 62.8321 142.837C71.3136 128.264 76.7723 121.963 88.2606 110.773C72.8877 115.191 64.7368 116.799 47.9567 116.905C47.4499 113.083 46.3873 111.231 44.6165 108.144C36.7188 124.658 30.3675 134.452 20.3118 149.957L20 150.438ZM44.0177 136.482L54.8864 137.799C59.4211 131.109 63.2235 127.478 70.5635 121.056C61.3675 124.243 56.3424 125.742 48.318 126.349L44.0177 136.482ZM95.6035 193.773L95.3457 194.285L95.0879 193.773C86.7739 177.256 81.5226 166.823 71.2616 151.682C74.8034 151.682 76.9285 151.682 80.4703 153.151C88.7689 138.472 91.4611 130.564 95.3457 114.956C99.2303 130.564 101.922 138.473 110.221 153.151C113.763 151.682 115.888 151.682 119.43 151.682C109.169 166.823 103.917 177.256 95.6035 193.773ZM101.375 157.358L94.8069 166.173L88.2385 157.358C91.7281 150.06 92.9509 144.931 94.8069 135.322C96.6628 144.931 97.8856 150.06 101.375 157.358Z" fill="white"/>
</g>
<defs>
<filter id="filter0_d_200_1182" x="0" y="0" width="190" height="214.285" filterUnits="userSpaceOnUse" color-interpolation-filters="sRGB">
<feFlood flood-opacity="0" result="BackgroundImageFix"/>
<feColorMatrix in="SourceAlpha" type="matrix" values="0 0 0 0 0 0 0 0 0 0 0 0 0 0 0 0 0 0 127 0" result="hardAlpha"/>
<feOffset/>
<feGaussianBlur stdDeviation="10"/>
<feComposite in2="hardAlpha" operator="out"/>
<feColorMatrix type="matrix" values="0 0 0 0 0 0 0 0 0 0 0 0 0 0 0 0 0 0 0.5 0"/>
<feBlend mode="normal" in2="BackgroundImageFix" result="effect1_dropShadow_200_1182"/>
<feBlend mode="normal" in="SourceGraphic" in2="effect1_dropShadow_200_1182" result="shape"/>
</filter>
</defs>
</svg>
