<svg width="190" height="195" viewBox="0 0 190 195" fill="none" xmlns="http://www.w3.org/2000/svg">
<g filter="url(#filter0_d_203_1228)">
<path d="M170 97.0835C168.819 100.335 158.46 114.514 152.447 117.534C135.622 76.8308 121.868 59.3358 95 31.0121C74.092 51.9302 64.6809 64.8344 63.0851 76.6328C75.0323 65.9082 82.108 60.5489 95 51.4628C108.885 64.8815 115.767 73.5927 126.915 90.791C120.781 99.0447 106.437 109.284 98.1915 114.388C95.6565 112.403 94.2607 110.625 91.8085 106.522C99.1119 100.425 102.951 96.696 109.362 89.2179C106.452 81.0632 103.112 77.0088 95 70.3403C79.7732 77.5174 70.5037 86.6373 56.7022 100.23C48.3093 87.3631 45.4366 80.1443 43.9362 67.1941C61.4873 46.5377 72.9785 36.5121 95 20.0002C117.687 36.5078 156.794 71.1401 170 97.0835Z" fill="white"/>
<path d="M20 97.0845C21.1807 93.8331 31.5401 79.6535 37.5532 76.6338C54.3782 117.337 68.1319 134.832 95 163.156C115.908 142.238 125.319 129.334 126.915 117.535C114.968 128.26 107.892 133.619 95 142.705C81.1145 129.286 74.2325 120.575 63.0851 103.377C69.2194 95.1233 83.5626 84.8842 91.8085 79.7801C94.3435 81.7655 95.7393 83.5431 98.1915 87.6457C90.8881 93.7426 87.0486 97.4719 80.6383 104.95C83.5481 113.105 86.8881 117.159 95 123.828C110.227 116.651 119.496 107.531 133.298 93.9382C141.691 106.805 144.563 114.024 146.064 126.974C128.513 147.63 117.022 157.656 95 174.168C72.3128 157.66 33.2061 123.028 20 97.0845Z" fill="white"/>
</g>
<defs>
<filter id="filter0_d_203_1228" x="0" y="0" width="190" height="194.168" filterUnits="userSpaceOnUse" color-interpolation-filters="sRGB">
<feFlood flood-opacity="0" result="BackgroundImageFix"/>
<feColorMatrix in="SourceAlpha" type="matrix" values="0 0 0 0 0 0 0 0 0 0 0 0 0 0 0 0 0 0 127 0" result="hardAlpha"/>
<feOffset/>
<feGaussianBlur stdDeviation="10"/>
<feComposite in2="hardAlpha" operator="out"/>
<feColorMatrix type="matrix" values="0 0 0 0 0 0 0 0 0 0 0 0 0 0 0 0 0 0 0.5 0"/>
<feBlend mode="normal" in2="BackgroundImageFix" result="effect1_dropShadow_203_1228"/>
<feBlend mode="normal" in="SourceGraphic" in2="effect1_dropShadow_203_1228" result="shape"/>
</filter>
</defs>
</svg>
