<svg width="152" height="136" viewBox="0 0 152 136" fill="none" xmlns="http://www.w3.org/2000/svg">
<path d="M53.4173 0C15.2375 9.13029 17.3585 55.4339 71.093 63.912C44.2258 44.3471 40.6906 16.9563 53.4173 0Z" fill="white"/>
<path d="M39.0715 83.3892C25.6742 89.5699 -7.46653 84.0398 2.40512 46.9561C5.22568 48.2572 6.05984 50.0127 7.34105 51.5102C29.1999 82.0881 49.9402 61.5684 65.161 78.9735C80.3818 96.3787 52.4688 107.461 50.3535 91.1964C64.3148 91.9541 64.456 82.7387 60.2253 79.8226C55.9945 76.9065 47.533 79.4857 39.0715 83.3892Z" fill="white"/>
<path fill-rule="evenodd" clip-rule="evenodd" d="M76.0284 78.2597C72.8756 71.2766 65.3574 67.9387 56.7331 64.1098C41.9999 57.5688 24.0388 49.5947 19.1013 19.5649C2.02338 39.782 11.9857 67.825 44.7188 68.4772C78.875 69.1577 84.5677 107.607 48.2765 100.433C60.8451 110.977 66.9477 118.883 76.0284 135.65C84.954 118.883 90.9525 110.977 103.306 100.433C67.6352 107.607 73.2307 69.1577 106.803 68.4772C138.977 67.825 148.769 39.782 131.983 19.5649C127.13 49.5947 109.476 57.5688 94.9943 64.1098L94.9937 64.1101C86.517 67.9389 79.1272 71.2767 76.0284 78.2597ZM67.4892 107.607C70.5909 105.823 72.3862 104.578 76.0283 100.433C79.6081 104.578 81.3731 105.823 84.4217 107.607C80.938 106.694 79.0755 105.555 76.9061 104.228C76.6203 104.053 76.329 103.875 76.0283 103.694C75.7223 103.875 75.4262 104.053 75.1356 104.228C72.9283 105.555 71.0335 106.694 67.4892 107.607ZM71.1637 113.369L71.2813 113.261C72.6133 112.036 73.8647 110.885 76.0283 110.216C78.1549 110.885 79.3852 112.036 80.6945 113.261L80.703 113.269L80.7477 113.311L80.9246 113.476C78.0798 115.823 76.9398 117.237 76.0283 119.998C75.1009 117.237 73.9414 115.823 71.0472 113.476L71.1637 113.369Z" fill="white"/>
<path d="M99.4762 0C136.424 9.13029 134.372 55.4339 82.3706 63.912C108.371 44.3471 111.792 16.9563 99.4762 0Z" fill="white"/>
<path d="M112.982 83.3892C126.379 89.5699 159.52 84.0398 149.649 46.9561C146.828 48.2572 145.994 50.0127 144.713 51.5102C122.854 82.0881 102.113 61.5684 86.8927 78.9735C71.6719 96.3787 99.5849 107.461 101.7 91.1964C87.7389 91.9541 87.5977 82.7387 91.8285 79.8226C96.0592 76.9065 104.521 79.4857 112.982 83.3892Z" fill="white"/>
</svg>
