<svg width="110" height="109" viewBox="0 0 110 109" fill="none" xmlns="http://www.w3.org/2000/svg">
<g filter="url(#filter0_d_91_859)">
<path d="M44.5094 20C26.7938 24.5938 27.778 47.8906 52.711 52.1562C40.2445 42.3125 38.6042 28.5312 44.5094 20Z" fill="#1AD1B1"/>
<path d="M37.8525 61.9557C31.6361 65.0654 16.2586 62.2831 20.8391 43.625C22.1479 44.2797 22.5349 45.1629 23.1294 45.9163C33.272 61.3011 42.8956 50.977 49.9581 59.734C57.0206 68.4911 44.0689 74.0671 43.0874 65.8838C49.5655 66.265 49.631 61.6284 47.6679 60.1612C45.7048 58.694 41.7787 59.9917 37.8525 61.9557Z" fill="#1AD1B1"/>
<path fill-rule="evenodd" clip-rule="evenodd" d="M55.0004 59.375C53.5375 55.8616 50.049 54.1822 46.0473 52.2558C39.211 48.9647 30.877 44.9527 28.586 29.8438C20.6617 40.0156 25.2843 54.125 40.4726 54.4531C56.3212 54.7955 58.9627 74.1406 42.1234 70.5312C47.9553 75.8362 50.7869 79.8141 55.0004 88.25C59.1419 79.8141 61.9253 75.8362 67.6575 70.5312C51.1059 74.1406 53.7022 54.7955 69.2801 54.4531C84.2089 54.125 88.7524 40.0156 80.9636 29.8438C78.7117 44.9527 70.5201 48.9647 63.8006 52.2558L63.8004 52.2559C59.8672 54.1823 56.4383 55.8617 55.0004 59.375ZM51.0381 74.1406C52.4773 73.2431 53.3103 72.6168 55.0003 70.5312C56.6613 72.6168 57.4803 73.2431 58.8948 74.1406C57.2784 73.6814 56.4142 73.1082 55.4075 72.4405C55.275 72.3526 55.1398 72.263 55.0003 72.1719C54.8583 72.263 54.7209 72.3526 54.586 72.4405C53.5619 73.1082 52.6827 73.6814 51.0381 74.1406ZM52.689 77.0938L52.7976 76.9855C53.4157 76.3691 53.9964 75.7899 55.0003 75.4531C55.987 75.7899 56.5579 76.3691 57.1654 76.9855L57.2722 77.0938C55.9522 78.2746 55.4232 78.9857 55.0003 80.375C54.5699 78.9857 54.0319 78.2746 52.689 77.0938Z" fill="#1AD1B1"/>
<path d="M65.8802 20C83.0244 24.5938 82.0719 47.8906 57.9432 52.1562C70.0076 42.3125 71.595 28.5312 65.8802 20Z" fill="#1AD1B1"/>
<path d="M72.1475 61.9557C78.3639 65.0654 93.7414 62.2831 89.1609 43.625C87.8521 44.2797 87.4651 45.1629 86.8706 45.9163C76.728 61.3011 67.1044 50.977 60.0419 59.734C52.9794 68.4911 65.9311 74.0671 66.9126 65.8838C60.4345 66.265 60.369 61.6284 62.3321 60.1612C64.2952 58.694 68.2213 59.9917 72.1475 61.9557Z" fill="#1AD1B1"/>
</g>
<defs>
<filter id="filter0_d_91_859" x="0" y="0" width="110" height="108.25" filterUnits="userSpaceOnUse" color-interpolation-filters="sRGB">
<feFlood flood-opacity="0" result="BackgroundImageFix"/>
<feColorMatrix in="SourceAlpha" type="matrix" values="0 0 0 0 0 0 0 0 0 0 0 0 0 0 0 0 0 0 127 0" result="hardAlpha"/>
<feOffset/>
<feGaussianBlur stdDeviation="10"/>
<feComposite in2="hardAlpha" operator="out"/>
<feColorMatrix type="matrix" values="0 0 0 0 0 0 0 0 0 0 0 0 0 0 0 0 0 0 0.5 0"/>
<feBlend mode="normal" in2="BackgroundImageFix" result="effect1_dropShadow_91_859"/>
<feBlend mode="normal" in="SourceGraphic" in2="effect1_dropShadow_91_859" result="shape"/>
</filter>
</defs>
</svg>
