<svg width="59" height="83" viewBox="0 0 59 83" fill="none" xmlns="http://www.w3.org/2000/svg">
<g clip-path="url(#clip0_57_1589)">
<path d="M57.7421 0.588745H0.620483V82.4176H58.1603V0.588745H57.7421Z" fill="white"/>
<path d="M56.6658 2.13061H2.12402V80.9123H56.6658V2.13061Z" fill="black"/>
<path d="M53.7479 15.1035H5.00427V63.9745H53.7479V15.1035Z" fill="white"/>
<path d="M58.3688 0H0V83H58.7805V0H58.3688ZM57.9298 82.1977H0.850698V0.802333H57.9572V82.1977H57.9298Z" fill="black"/>
<path d="M7.4916 68.8347C7.4916 68.9177 7.46416 69.0007 7.46416 69.0837C7.40927 69.886 7.13485 70.4947 6.20183 70.4947C4.8023 70.4947 4.71997 69.637 4.71997 68.475V67.8387C4.74741 66.732 4.85718 65.902 6.20183 65.902C6.94276 65.902 7.38183 66.2893 7.43671 67.0363C7.43671 67.147 7.46416 67.2577 7.46416 67.3683H6.6409C6.61346 67.0917 6.6409 66.566 6.22927 66.566C5.57067 66.566 5.62555 67.3407 5.62555 67.6727V68.89C5.62555 69.2497 5.65299 69.8307 6.22927 69.8307C6.69578 69.8307 6.6409 69.1113 6.6409 68.8347H7.4916Z" fill="white"/>
<path d="M8.1228 67.8387C8.15024 66.732 8.26001 65.902 9.60466 65.902C10.9493 65.902 11.0316 66.732 11.0865 67.8387V68.475C11.0865 69.637 11.0042 70.4947 9.60466 70.4947C8.23257 70.4947 8.1228 69.637 8.1228 68.475V67.8387ZM8.9735 68.89C8.9735 69.2497 9.00094 69.8307 9.57722 69.8307C10.1809 69.8307 10.1809 69.222 10.1809 68.807V67.7003C10.1809 67.3407 10.2084 66.566 9.57722 66.566C8.91862 66.566 8.9735 67.3407 8.9735 67.6727V68.89Z" fill="white"/>
<path d="M13.8581 66.0127H14.7088V70.384H13.8306L13.172 68.8347C12.9525 68.309 12.7604 67.7833 12.5683 67.0917C12.5958 67.4513 12.6232 67.894 12.6506 68.3367C12.6781 68.7793 12.6781 69.1943 12.6781 69.554V70.384H11.8274V66.0127H12.7055L13.3641 67.6173C13.5837 68.1153 13.7758 68.641 13.9679 69.3603C13.9404 68.973 13.913 68.5303 13.8855 68.1153C13.8581 67.7003 13.8306 67.2853 13.8306 66.898V66.0127H13.8581Z" fill="white"/>
<path d="M15.2113 66.0141H18.02V66.657H17.0411V70.3851H16.1951V66.657H15.2113V66.0141Z" fill="white"/>
<path d="M18.4996 70.3851V66.0141H20.8742V66.657H19.3451V67.759H20.7565V68.4H19.3451V69.7444H20.8742V70.3851H18.4996Z" fill="white"/>
<path d="M23.5451 66.0127H24.3958V70.384H23.5177L22.8591 68.8347C22.6395 68.309 22.4475 67.7833 22.2554 67.0917C22.2828 67.4513 22.3102 67.894 22.3377 68.3367C22.3651 68.7793 22.3926 69.1943 22.3926 69.554V70.384H21.5419V66.0127H22.42L23.0786 67.6173C23.2981 68.1153 23.4628 68.641 23.6823 69.3603C23.6549 68.973 23.6275 68.5303 23.6 68.1153C23.5726 67.7003 23.5451 67.2853 23.5451 66.898V66.0127Z" fill="white"/>
<path d="M24.9084 66.0141H27.7179V66.657H26.7342V70.3851H25.8922V66.657H24.9084V66.0141Z" fill="white"/>
<path d="M30.5702 68.5027V70.384H29.7195V66.0127H31.3111C32.052 66.0127 32.6009 66.2617 32.6009 67.064C32.6009 67.5343 32.4911 68.0323 31.9148 68.1153V68.143C32.4088 68.1983 32.5734 68.5027 32.5734 68.9453C32.5734 69.1113 32.546 70.1903 32.7655 70.3287V70.4117H31.8325C31.7227 70.135 31.7502 69.5817 31.7502 69.305C31.7502 69.0283 31.7502 68.6687 31.4483 68.5857C31.2288 68.5303 30.9818 68.5303 30.7348 68.5303H30.5702V68.5027ZM30.5702 67.8663H31.2288C31.5032 67.8387 31.7227 67.6727 31.7227 67.23C31.7227 66.732 31.5032 66.649 31.2013 66.649H30.5702V67.8663Z" fill="white"/>
<path d="M33.04 70.384L34.1103 66.0127H35.2354L36.2507 70.384H35.3452L35.1256 69.2773H34.1377L33.9182 70.384H33.04ZM34.3024 68.641H35.0159L34.7963 67.396C34.7414 67.2023 34.7414 67.0087 34.714 66.7873C34.714 66.6767 34.6866 66.5937 34.6866 66.483C34.6591 66.566 34.6591 66.6767 34.6591 66.7873C34.6317 66.981 34.6042 67.1747 34.5768 67.396L34.3024 68.641Z" fill="white"/>
<path d="M36.4471 66.0141H39.2566V66.657H38.2764V70.3851H37.4309V66.657H36.4471V66.0141Z" fill="white"/>
<path d="M39.7407 70.3851V66.0141H42.1117V66.657H40.5862V67.759H41.989V68.4H40.5862V69.7444H42.1117V70.3851H39.7407Z" fill="white"/>
<path d="M42.8093 70.384V66.0127H44.5656C44.7577 66.0127 45.1693 66.0957 45.4437 66.5107C45.6358 66.815 45.6907 67.313 45.6907 68.0323C45.6907 68.89 45.6907 69.886 45.0047 70.301C44.8126 70.4117 44.593 70.4117 44.3735 70.4117H42.8093V70.384ZM44.0168 69.7477C44.7577 69.7477 44.8126 69.3603 44.8126 68.0877C44.8126 67.064 44.7028 66.649 44.2089 66.649H43.66V69.7477H44.0168Z" fill="white"/>
<path d="M47.9409 70.384V66.0127H49.2856C49.6423 66.0127 49.9991 66.0403 50.246 66.3447C50.4381 66.5937 50.4656 66.8427 50.4656 67.1193C50.4656 67.5067 50.3832 67.8663 49.9167 68.0323C50.3832 68.0877 50.5753 68.475 50.5753 69.056C50.5753 69.2497 50.5753 69.4157 50.5205 69.5817C50.3284 70.135 50.0265 70.3563 49.4228 70.3563H47.9409V70.384ZM48.9563 69.7477C49.1209 69.7477 49.313 69.7753 49.4777 69.6923C49.6972 69.5817 49.7246 69.305 49.7246 69.0837C49.7246 68.6133 49.6423 68.4197 49.1209 68.4197H48.7916V69.7477H48.9563ZM48.9288 67.7833C49.1209 67.7833 49.3953 67.7833 49.5325 67.6173C49.6149 67.5067 49.6149 67.3683 49.6149 67.147C49.6149 66.815 49.5325 66.649 49.1484 66.649H48.7642V67.7833H48.9288Z" fill="white"/>
<path d="M52.359 67.147C52.4413 67.3683 52.5237 67.5897 52.5511 67.811H52.5785C52.6334 67.479 52.7432 67.23 52.853 66.981L53.2371 65.985H54.1702L52.9902 68.5027V70.3563H52.1395V68.5027L50.9595 65.985H51.8651L52.359 67.147Z" fill="white"/>
<path d="M4.89014 78.1368V71.6752H13.9882V73.1877H8.54539V74.1099H13.1518V75.6169H8.54539V76.63H14.2009V78.1368H4.89014Z" fill="white"/>
<path d="M23.353 73.5657C23.2981 73.3443 23.0786 73.206 22.8316 73.123C22.5846 73.04 22.2553 73.0123 21.8986 73.0123C21.1028 73.0123 20.746 73.1507 20.746 73.3997C20.746 74.368 27.1674 73.7593 27.1674 76.111C27.1674 77.605 24.9995 78.3243 21.9535 78.3243C19.0172 78.3243 17.0962 77.3283 17.0139 76.1663H20.5265C20.6088 76.3877 20.8283 76.5813 21.1302 76.6643C21.4321 76.775 21.8162 76.8303 22.173 76.8303C23.0786 76.8303 23.6823 76.6643 23.6823 76.36C23.6823 75.3917 17.2609 76.0557 17.2609 73.5933C17.2609 72.21 19.319 71.5183 22.0907 71.5183C25.1916 71.5183 26.5911 72.4313 26.8655 73.5657H23.353Z" fill="white"/>
<path d="M33.8083 75.8897V78.1307H30.1586V71.6567H35.4274C39.1321 71.6567 40.3669 72.2377 40.3669 73.5103C40.3669 74.2573 39.7907 74.866 38.5009 75.0873C39.6809 75.3363 40.3944 75.5023 40.3944 76.8027C40.3944 77.6327 40.3395 77.937 40.7786 77.937V78.1307H37.0465C36.9641 77.9923 36.8544 77.5773 36.8544 76.9963C36.8544 76.1387 36.6074 75.8897 34.906 75.8897H33.8083ZM33.8083 74.4787H35.2353C36.3604 74.4787 36.9641 74.3127 36.9641 73.87C36.9641 73.4273 36.3604 73.206 35.4823 73.206H33.7809V74.4787H33.8083Z" fill="white"/>
<path d="M43.9344 78.1307V71.6567H49.2582C51.7828 71.6567 53.7586 72.0163 53.7586 73.289C53.7586 73.953 53.0177 74.451 52.3042 74.7C53.5117 74.8937 54.1703 75.4747 54.1703 76.194C54.1703 77.6327 52.2768 78.1307 49.3679 78.1307H43.9344ZM47.5842 75.447V76.6367H49.1758C50.0814 76.6367 50.7675 76.526 50.7675 76.0557C50.7675 75.5023 49.9168 75.447 48.7642 75.447H47.5842ZM47.5842 73.1783V74.2573H49.0935C49.807 74.2573 50.3558 74.0637 50.3558 73.704C50.3558 73.206 49.6424 73.206 48.874 73.206H47.5842V73.1783Z" fill="white"/>
<path d="M6.44885 19.4773C6.44885 18.0387 7.71118 16.9043 9.27536 16.9043C10.8396 16.9043 12.0744 18.0663 12.0744 19.4773C12.0744 20.916 10.8396 22.078 9.27536 22.078C7.68374 22.078 6.44885 20.916 6.44885 19.4773ZM11.553 19.4773C11.553 18.3153 10.5377 17.347 9.24792 17.347C7.95816 17.347 6.91536 18.3153 6.91536 19.4773C6.91536 20.667 7.95816 21.6077 9.24792 21.6077C10.5377 21.6077 11.553 20.667 11.553 19.4773ZM8.67164 19.6433V20.9437H8.15025V17.9003H9.22048C9.8242 17.9003 10.4554 18.0663 10.4554 18.758C10.4554 19.1177 10.2358 19.3943 9.79676 19.4773C10.2358 19.5603 10.2907 19.754 10.3456 20.086C10.4005 20.3627 10.4279 20.6947 10.5377 20.9713H9.87909C9.85164 20.8053 9.79676 20.6117 9.76932 20.418C9.74188 20.169 9.74188 19.92 9.57723 19.7817C9.44002 19.671 9.27536 19.671 9.08327 19.671H8.67164M9.19304 19.173C9.68699 19.173 9.79676 18.9517 9.79676 18.7303C9.79676 18.509 9.68699 18.3707 9.27536 18.3707H8.6442V19.1453H9.19304V19.173Z" fill="black"/>
<path d="M7.39941 26.1763L45.3082 16.6722L48.2208 26.8292L36.0441 29.8817L44.2116 58.4215L30.6572 61.8245L22.4834 33.2811L10.3083 36.3374L7.39941 26.1763Z" fill="black"/>
<path d="M42.7687 4.51686H46.2148L50.2183 8.82069L50.0764 7.02318V4.51686H53.6V12.3994H50.1571L46.1495 8.10772L46.2914 9.90135V12.3994H42.7687V4.51686Z" fill="white"/>
<path d="M30.3496 4.51686H39.4891V6.3531H34.0219V7.48605H38.6499V9.32588H34.0219V10.5598H39.71V12.3994H30.3496V4.51686Z" fill="white"/>
<path d="M17.5011 4.51686H26.6403V6.3531H21.1772V7.48605H25.8003V9.32588H21.1772V10.5598H26.8648V12.3994H17.5011V4.51686Z" fill="white"/>
<path d="M4.09839 4.51686H14.3773V6.58743H11.0774V12.3994H7.39937V6.58743H4.09839V4.51686Z" fill="white"/>
</g>
<defs>
<clipPath id="clip0_57_1589">
<rect width="59" height="83" fill="white"/>
</clipPath>
</defs>
</svg>
