<svg width="45" height="45" viewBox="0 0 45 45" fill="none" xmlns="http://www.w3.org/2000/svg">
<path d="M40.1786 0H4.82143C3.54271 0 2.31636 0.507971 1.41216 1.41216C0.50797 2.31636 0 3.54271 0 4.82143L0 40.1786C0 41.4573 0.50797 42.6836 1.41216 43.5878C2.31636 44.492 3.54271 45 4.82143 45H18.6077V29.701H12.2796V22.5H18.6077V17.0116C18.6077 10.7689 22.3242 7.32054 28.0165 7.32054C30.7426 7.32054 33.5933 7.8067 33.5933 7.8067V13.9339H30.4523C27.3576 13.9339 26.3923 15.8545 26.3923 17.8242V22.5H33.301L32.1961 29.701H26.3923V45H40.1786C41.4573 45 42.6836 44.492 43.5878 43.5878C44.492 42.6836 45 41.4573 45 40.1786V4.82143C45 3.54271 44.492 2.31636 43.5878 1.41216C42.6836 0.507971 41.4573 0 40.1786 0Z" fill="white"/>
</svg>
