<svg width="45" height="45" viewBox="0 0 45 45" fill="none" xmlns="http://www.w3.org/2000/svg">
<path d="M22.5 0C16.3835 0 15.6212 0.029535 13.2274 0.130798C10.8239 0.248937 9.19802 0.62164 7.76347 1.17858C6.28391 1.75803 5.02375 2.52735 3.77907 3.77907C2.52594 5.02375 1.74959 6.28391 1.17858 7.76347C0.62164 9.19802 0.248937 10.8239 0.130798 13.2274C0.0225028 15.6226 0 16.3835 0 22.5C0 28.6165 0.029535 29.3788 0.130798 31.7726C0.248937 34.1691 0.62164 35.802 1.17858 37.2365C1.75803 38.7161 2.52735 39.9762 3.77907 41.2209C5.02375 42.4741 6.28391 43.2504 7.76347 43.8214C9.19802 44.3713 10.8309 44.7511 13.2274 44.8692C15.6226 44.9775 16.3835 45 22.5 45C28.6165 45 29.3788 44.9705 31.7726 44.8692C34.1691 44.7511 35.802 44.3699 37.2365 43.8214C38.7161 43.242 39.9762 42.4727 41.2209 41.2209C42.4741 39.9762 43.2504 38.7231 43.8214 37.2365C44.3713 35.802 44.7511 34.1691 44.8692 31.7726C44.9775 29.3774 45 28.6165 45 22.5C45 16.3835 44.9705 15.6212 44.8692 13.2274C44.7511 10.8309 44.3699 9.18959 43.8214 7.76347C43.242 6.28391 42.4727 5.02375 41.2209 3.77907C39.9762 2.52594 38.7231 1.74959 37.2365 1.17858C35.802 0.62164 34.1691 0.248937 31.7726 0.130798C29.3774 0.0225028 28.6165 0 22.5 0ZM22.5 4.05051C28.5068 4.05051 29.2241 4.08004 31.5982 4.1813C33.788 4.28397 34.9806 4.64964 35.7724 4.95906C36.8287 5.36833 37.567 5.85214 38.3659 6.64255C39.1493 7.42593 39.6331 8.17274 40.0423 9.22897C40.3518 10.0208 40.7174 11.2134 40.8201 13.4032C40.9214 15.7773 40.9509 16.496 40.9509 22.5014C40.9509 28.5068 40.9214 29.2255 40.8117 31.5996C40.6935 33.7894 40.3279 34.982 40.0198 35.7738C39.5937 36.8301 39.1183 37.5684 38.3335 38.3673C37.5417 39.1507 36.7879 39.6345 35.7401 40.0438C34.9581 40.3532 33.7486 40.7188 31.5503 40.8215C29.1636 40.9228 28.4604 40.9523 22.4381 40.9523C16.4158 40.9523 15.714 40.9228 13.3245 40.8131C11.1347 40.6949 9.92655 40.3293 9.13474 40.0213C8.06585 39.5951 7.3331 39.1197 6.54832 38.3349C5.7565 37.5431 5.253 36.7893 4.86483 35.7415C4.54979 34.9595 4.18974 33.75 4.07301 31.5518C3.99284 29.1932 3.95487 28.4618 3.95487 22.4677C3.95487 16.4763 3.99284 15.7435 4.07301 13.3554C4.18974 11.1572 4.54979 9.95046 4.86483 9.16568C5.253 8.09539 5.75791 7.36405 6.54832 6.57223C7.3317 5.78885 8.06585 5.28254 9.13474 4.88592C9.92655 4.57792 11.1051 4.21225 13.3034 4.10254C15.6901 4.01675 16.3933 3.98581 22.4072 3.98581L22.5 4.05051ZM22.5 10.9518C16.1134 10.9518 10.949 16.1233 10.949 22.5028C10.949 28.8894 16.1205 34.0538 22.5 34.0538C28.8866 34.0538 34.051 28.8824 34.051 22.5028C34.051 16.1162 28.8795 10.9518 22.5 10.9518ZM22.5 30.0033C18.3539 30.0033 14.9995 26.649 14.9995 22.5028C14.9995 18.3567 18.3539 15.0023 22.5 15.0023C26.6461 15.0023 30.0005 18.3567 30.0005 22.5028C30.0005 26.649 26.6461 30.0033 22.5 30.0033ZM37.2168 10.4905C37.2168 11.9856 36.0003 13.1923 34.5123 13.1923C33.0173 13.1923 31.8105 11.9842 31.8105 10.4905C31.8105 9.00394 33.0257 7.79441 34.5123 7.79441C35.9989 7.79441 37.2168 9.00394 37.2168 10.4905Z" fill="white"/>
</svg>
