<svg width="45" height="45" viewBox="0 0 45 45" fill="none" xmlns="http://www.w3.org/2000/svg">
<path d="M22.5 0C16.5326 0 10.8097 2.37053 6.5901 6.5901C2.37053 10.8097 0 16.5326 0 22.5C0 28.4674 2.37053 34.1903 6.5901 38.4099C10.8097 42.6295 16.5326 45 22.5 45C28.4674 45 34.1903 42.6295 38.4099 38.4099C42.6295 34.1903 45 28.4674 45 22.5C45 16.5326 42.6295 10.8097 38.4099 6.5901C34.1903 2.37053 28.4674 0 22.5 0ZM31.8938 8.895C33.1838 8.895 34.2375 9.94687 34.2375 11.2369C34.231 11.845 33.9883 12.4268 33.5608 12.8593C33.1333 13.2918 32.5544 13.5413 31.9464 13.5549C31.3384 13.5685 30.7489 13.3453 30.3025 12.9324C29.856 12.5194 29.5875 11.9491 29.5538 11.3419L24.6844 10.3162L23.1844 17.3419C26.6044 17.4731 29.7094 18.5269 31.9481 20.1319C32.5256 19.5525 33.3169 19.2113 34.2113 19.2113C36.0262 19.2113 37.5 20.685 37.5 22.5C37.5 23.8425 36.6844 24.9994 35.6063 25.5263C35.6598 25.8485 35.6861 26.1746 35.685 26.5012C35.685 31.5525 29.8162 35.6325 22.5525 35.6325C15.2887 35.6325 9.42 31.5525 9.42 26.5012C9.42 26.1581 9.44812 25.815 9.50062 25.5C8.92018 25.2424 8.42706 24.8218 8.08121 24.2892C7.73537 23.7566 7.55168 23.135 7.5525 22.5C7.5525 20.685 9.02625 19.2113 10.8413 19.2113C11.7094 19.2113 12.525 19.5788 13.1044 20.13C15.3675 18.4744 18.5006 17.4487 21.9994 17.3419L23.6588 9.50062C23.6984 9.34966 23.7917 9.21832 23.9213 9.13125C24.0559 9.05285 24.2141 9.02493 24.3675 9.0525L29.8162 10.2094C30.0004 9.81441 30.294 9.4806 30.6623 9.24761C31.0306 9.01462 31.458 8.89223 31.8938 8.895ZM17.3438 22.5C16.0519 22.5 15 23.5537 15 24.8438C15 26.1319 16.0519 27.1838 17.3438 27.1838C18.6319 27.1838 19.6838 26.1319 19.6838 24.8419C19.6838 23.5519 18.6319 22.5 17.3419 22.5H17.3438ZM27.6562 22.5C26.3681 22.5 25.3162 23.5519 25.3162 24.8438C25.3162 26.1319 26.3681 27.1838 27.6581 27.1838C28.9481 27.1838 30 26.1319 30 24.8419C30 23.5537 28.9463 22.5 27.6562 22.5ZM17.4075 29.9812C17.2455 29.9805 17.0898 30.0438 16.9744 30.1575C16.8604 30.2732 16.7966 30.4291 16.7966 30.5916C16.7966 30.754 16.8604 30.9099 16.9744 31.0256C18.5531 32.6044 21.6319 32.7375 22.5262 32.7375C23.4206 32.7375 26.4731 32.6325 28.0781 31.0256C28.1877 30.9104 28.2533 30.7602 28.2632 30.6015C28.2732 30.4427 28.2269 30.2855 28.1325 30.1575C28.0167 30.043 27.8604 29.9788 27.6975 29.9788C27.5346 29.9788 27.3783 30.043 27.2625 30.1575C26.2369 31.1569 24.105 31.5262 22.5525 31.5262C21 31.5262 18.8419 31.1587 17.8425 30.1575C17.7853 30.1006 17.7175 30.0555 17.6428 30.025C17.5681 29.9944 17.4882 29.9808 17.4075 29.9812Z" fill="white"/>
</svg>
