<svg width="40" height="45" viewBox="0 0 40 45" fill="none" xmlns="http://www.w3.org/2000/svg">
<path d="M34.145 9.62389C33.8412 9.46692 33.5456 9.29484 33.2591 9.1083C32.4259 8.5575 31.662 7.9085 30.9839 7.17527C29.2871 5.2338 28.6534 3.26421 28.4199 1.88522H28.4293C28.2343 0.740588 28.3149 0 28.3271 0H20.5988V29.8841C20.5988 30.2854 20.5988 30.6819 20.5819 31.0738C20.5819 31.1225 20.5772 31.1675 20.5744 31.22C20.5744 31.2416 20.5744 31.2641 20.5697 31.2866V31.3034C20.4882 32.3757 20.1445 33.4115 19.5688 34.3197C18.9931 35.2279 18.203 35.9807 17.268 36.5119C16.2936 37.0663 15.1914 37.3571 14.0703 37.3556C10.4696 37.3556 7.55129 34.4195 7.55129 30.7935C7.55129 27.1674 10.4696 24.2313 14.0703 24.2313C14.7519 24.2307 15.4294 24.3379 16.0774 24.5491L16.0868 16.6801C14.1194 16.426 12.1207 16.5823 10.2168 17.1393C8.3129 17.6963 6.54507 18.6418 5.02485 19.9162C3.69279 21.0736 2.57293 22.4545 1.71564 23.9969C1.38941 24.5594 0.158534 26.8196 0.0094794 30.4879C-0.0842659 32.5699 0.541015 34.727 0.839125 35.6185V35.6373C1.02662 36.1623 1.75314 37.9537 2.93715 39.464C3.89188 40.6754 5.01987 41.7396 6.28479 42.6222V42.6035L6.30354 42.6222C10.0449 45.1646 14.1931 44.9978 14.1931 44.9978C14.9112 44.9687 17.3167 44.9978 20.0485 43.7031C23.0783 42.2679 24.8032 40.1296 24.8032 40.1296C25.9052 38.8519 26.7814 37.3958 27.3944 35.8238C28.0937 33.9855 28.3271 31.7806 28.3271 30.8994V15.0452C28.4209 15.1014 29.6696 15.9273 29.6696 15.9273C29.6696 15.9273 31.4685 17.0804 34.2753 17.8313C36.2889 18.3656 39.0019 18.4781 39.0019 18.4781V10.806C38.0513 10.9091 36.1211 10.6092 34.145 9.62389Z" fill="white"/>
</svg>
