<svg width="65" height="45" viewBox="0 0 65 45" fill="none" xmlns="http://www.w3.org/2000/svg">
<path d="M63.044 6.9485C62.6708 5.61131 61.959 4.393 60.9773 3.41133C59.9956 2.42966 58.7773 1.71783 57.4401 1.34464C52.4214 3.85526e-05 32.2228 3.80718e-05 32.2228 3.80718e-05C32.2228 3.80718e-05 12.0752 -0.0267998 7.0054 1.34464C5.66821 1.71783 4.4499 2.42966 3.46824 3.41133C2.48657 4.393 1.77473 5.61131 1.40154 6.9485C0.450178 12.0867 -0.0188498 17.3027 0.000579689 22.5282C-0.0151768 27.734 0.453836 32.93 1.40154 38.0489C1.77473 39.386 2.48657 40.6044 3.46824 41.586C4.4499 42.5677 5.66821 43.2795 7.0054 43.6527C12.0188 45 32.2228 45 32.2228 45C32.2228 45 52.3677 45 57.4401 43.6527C58.7773 43.2795 59.9956 42.5677 60.9773 41.586C61.959 40.6044 62.6708 39.386 63.044 38.0489C63.9719 32.9281 64.4212 27.7322 64.3859 22.5282C64.4248 17.3045 63.9756 12.0886 63.044 6.9485ZM25.7762 32.1659V12.861L42.5878 22.5282L25.7762 32.1659Z" fill="white"/>
</svg>
